<svg width="87" height="86" viewBox="0 0 87 86" fill="none" xmlns="http://www.w3.org/2000/svg">
<path fill-rule="evenodd" clip-rule="evenodd" d="M43.3187 10.6865C34.6115 10.6865 33.5215 10.7229 30.1018 10.8789C26.6886 11.0349 24.3568 11.5778 22.3179 12.3707C20.1806 13.1743 18.2421 14.4353 16.6391 16.0682C15.0089 17.6693 13.7471 19.6064 12.9416 21.7448C12.153 23.7837 11.608 26.1176 11.452 29.5309C11.2981 32.9484 11.2596 34.0363 11.2596 42.7456C11.2596 51.455 11.2959 52.5429 11.452 55.9626C11.608 59.3758 12.1509 61.7075 12.9438 63.7465C13.7474 65.8838 15.0084 67.8223 16.6413 69.4252C18.2424 71.0555 20.1795 72.3172 22.3179 73.1227C24.3568 73.9135 26.6886 74.4564 30.1018 74.6124C33.5215 74.7684 34.6115 74.8048 43.3187 74.8048C52.026 74.8048 53.116 74.7684 56.5356 74.6124C59.9489 74.4564 62.2806 73.9135 64.3196 73.1206C66.4569 72.317 68.3954 71.056 69.9983 69.4231C71.6286 67.822 72.8904 65.8849 73.6958 63.7465C74.4866 61.7075 75.0295 59.3758 75.1855 55.9626C75.3415 52.5429 75.3779 51.4529 75.3779 42.7456C75.3779 34.0384 75.3415 32.9484 75.1855 29.5287C75.0295 26.1155 74.4866 23.7837 73.6937 21.7448C72.8888 19.6055 71.627 17.6675 69.9962 16.066C68.3951 14.4358 66.458 13.174 64.3196 12.3686C62.2806 11.5799 59.9467 11.0349 56.5335 10.8789C53.116 10.725 52.0281 10.6865 43.3187 10.6865ZM43.3187 16.4636C51.8785 16.4636 52.8937 16.4956 56.2749 16.6495C59.3996 16.7927 61.0966 17.3121 62.2272 17.7545C63.7233 18.3337 64.7919 19.0304 65.914 20.1504C67.0361 21.2724 67.7307 22.3411 68.3099 23.8372C68.7502 24.9678 69.2717 26.6648 69.4149 29.7895C69.5687 33.1707 69.6008 34.1859 69.6008 42.7456C69.6008 51.3054 69.5687 52.3206 69.4149 55.7018C69.2717 58.8265 68.7523 60.5235 68.3099 61.6541C67.7968 63.0466 66.9781 64.3065 65.914 65.3409C64.8797 66.4052 63.6199 67.224 62.2272 67.7368C61.0966 68.1771 59.3996 68.6986 56.2749 68.8418C52.8937 68.9957 51.8807 69.0277 43.3187 69.0277C34.7568 69.0277 33.7437 68.9957 30.3626 68.8418C27.2379 68.6986 25.5409 68.1792 24.4103 67.7368C23.0177 67.2237 21.7579 66.405 20.7235 65.3409C19.6595 64.3064 18.8408 63.0466 18.3276 61.6541C17.8873 60.5235 17.3658 58.8265 17.2226 55.7018C17.0687 52.3206 17.0367 51.3054 17.0367 42.7456C17.0367 34.1859 17.0687 33.1707 17.2226 29.7895C17.3658 26.6648 17.8852 24.9678 18.3276 23.8372C18.9068 22.3411 19.6035 21.2724 20.7235 20.1504C21.7578 19.0861 23.0176 18.2674 24.4103 17.7545C25.5409 17.3142 27.2379 16.7927 30.3626 16.6495C33.7437 16.4956 34.7589 16.4636 43.3187 16.4636Z" fill="#E85E05"/>
<path fill-rule="evenodd" clip-rule="evenodd" d="M43.3187 53.4426C41.914 53.4426 40.523 53.1659 39.2251 52.6283C37.9273 52.0908 36.7481 51.3028 35.7548 50.3095C34.7615 49.3162 33.9735 48.137 33.4359 46.8391C32.8984 45.5413 32.6217 44.1503 32.6217 42.7455C32.6217 41.3408 32.8984 39.9498 33.4359 38.652C33.9735 37.3541 34.7615 36.1749 35.7548 35.1816C36.7481 34.1883 37.9273 33.4003 39.2251 32.8628C40.523 32.3252 41.914 32.0485 43.3187 32.0485C46.1558 32.0485 48.8766 33.1755 50.8827 35.1816C52.8888 37.1877 54.0158 39.9085 54.0158 42.7455C54.0158 45.5826 52.8888 48.3034 50.8827 50.3095C48.8766 52.3156 46.1558 53.4426 43.3187 53.4426ZM43.3187 26.2672C38.9484 26.2672 34.757 28.0033 31.6668 31.0936C28.5765 34.1839 26.8403 38.3752 26.8403 42.7455C26.8403 47.1159 28.5765 51.3072 31.6668 54.3975C34.757 57.4878 38.9484 59.2239 43.3187 59.2239C47.6891 59.2239 51.8804 57.4878 54.9707 54.3975C58.061 51.3072 59.7971 47.1159 59.7971 42.7455C59.7971 38.3752 58.061 34.1839 54.9707 31.0936C51.8804 28.0033 47.6891 26.2672 43.3187 26.2672ZM64.591 25.9679C64.591 27.001 64.1806 27.9918 63.4501 28.7222C62.7197 29.4527 61.7289 29.8631 60.6958 29.8631C59.6628 29.8631 58.672 29.4527 57.9415 28.7222C57.211 27.9918 56.8007 27.001 56.8007 25.9679C56.8007 24.9349 57.211 23.9441 57.9415 23.2136C58.672 22.4831 59.6628 22.0728 60.6958 22.0728C61.7289 22.0728 62.7197 22.4831 63.4501 23.2136C64.1806 23.9441 64.591 24.9349 64.591 25.9679Z" fill="#E85E05"/>
</svg>
