<svg width="73" height="72" viewBox="0 0 73 72" fill="none" xmlns="http://www.w3.org/2000/svg">
<path fill-rule="evenodd" clip-rule="evenodd" d="M72.0821 35.7453C72.0821 55.4183 56.1339 71.3665 36.4608 71.3665C16.7878 71.3665 0.839581 55.4183 0.839581 35.7453C0.839581 16.0722 16.7878 0.124023 36.4608 0.124023C56.1339 0.124023 72.0821 16.0722 72.0821 35.7453ZM37.7373 26.4212C34.2726 27.8623 27.3481 30.845 16.9637 35.3693C15.2775 36.0398 14.3942 36.6959 14.3137 37.3373C14.1778 38.4214 15.5354 38.8482 17.384 39.4295C17.6355 39.5086 17.896 39.5905 18.1631 39.6773C19.9819 40.2685 22.4284 40.9602 23.7003 40.9877C24.854 41.0126 26.1417 40.537 27.5633 39.5608C37.2657 33.0114 42.2741 29.701 42.5885 29.6296C42.8104 29.5793 43.1178 29.516 43.326 29.7011C43.5343 29.8862 43.5139 30.2368 43.4918 30.3309C43.3573 30.9042 38.0285 35.8584 35.2708 38.4222C34.4111 39.2214 33.8013 39.7884 33.6766 39.9179C33.3973 40.2079 33.1127 40.4823 32.8392 40.746C31.1495 42.3748 29.8824 43.5963 32.9094 45.591C34.3639 46.5496 35.5279 47.3422 36.6891 48.133C37.9573 48.9966 39.2222 49.858 40.8588 50.9309C41.2758 51.2042 41.674 51.4881 42.0619 51.7646C43.5377 52.8167 44.8636 53.762 46.5017 53.6113C47.4536 53.5237 48.4368 52.6286 48.9361 49.9593C50.1162 43.6507 52.4358 29.982 52.9718 24.3494C53.0188 23.8559 52.9597 23.2243 52.9123 22.9471C52.8648 22.6699 52.7657 22.2749 52.4053 21.9824C51.9785 21.6361 51.3197 21.5631 51.025 21.5683C49.6852 21.5919 47.6296 22.3066 37.7373 26.4212Z" fill="#E85E05"/>
</svg>
