<svg width="87" height="86" viewBox="0 0 87 86" fill="none" xmlns="http://www.w3.org/2000/svg">
<path d="M43.7378 11.7207C26.1405 11.7207 11.8194 25.5144 11.8132 42.4664C11.809 47.8875 13.2817 53.1783 16.0739 57.8383L11.5443 73.7706L28.4694 69.4954C33.1774 71.9581 38.4122 73.2427 43.7254 73.2391H43.7378C61.3352 73.2391 75.6563 59.4433 75.6625 42.4913C75.6667 34.28 72.3491 26.5506 66.3199 20.7407C60.2928 14.9287 52.278 11.7228 43.7378 11.7207ZM43.7378 68.0455H43.7275C38.9662 68.0455 34.2959 66.8127 30.2213 64.4838L29.2492 63.9295L19.2095 66.4653L21.8901 57.0337L21.2592 56.0678C18.6095 52.0266 17.199 47.2989 17.2012 42.4664C17.2074 28.3749 29.1127 16.9143 43.7482 16.9143C50.8343 16.9163 57.4964 19.5783 62.5079 24.4078C67.5195 29.2374 70.2766 35.6596 70.2724 42.4892C70.2662 56.5807 58.363 68.0455 43.7358 68.0455H43.7378ZM58.2927 48.9031C57.4943 48.5204 53.5728 46.661 52.8406 46.4025C52.1104 46.1481 51.5789 46.0157 51.0473 46.7851C50.5178 47.5545 48.9873 49.2857 48.524 49.7966C48.0565 50.3095 47.5911 50.3716 46.7928 49.989C45.9944 49.6042 43.4235 48.7935 40.3789 46.1749C38.0065 44.1397 36.4056 41.6246 35.9402 40.8531C35.4749 40.0858 35.8906 39.67 36.2898 39.2874C36.6476 38.9461 37.0882 38.3918 37.4853 37.943C37.8824 37.4942 38.0148 37.1736 38.2837 36.6606C38.5484 36.1498 38.416 35.6989 38.2154 35.3162C38.0148 34.9294 36.4222 31.1485 35.7541 29.6118C35.1088 28.1143 34.451 28.3149 33.9608 28.2901C33.4955 28.2694 32.966 28.2632 32.4303 28.2632C31.9029 28.2632 31.0362 28.4556 30.304 29.225C29.5739 29.9944 27.5118 31.8518 27.5118 35.6327C27.5118 39.4156 30.3702 43.0683 30.7694 43.5813C31.1686 44.0921 36.3953 51.8546 44.3976 55.1846C46.3005 55.9726 47.7856 56.4463 48.9459 56.802C50.857 57.3874 52.5965 57.3026 53.9699 57.1061C55.5004 56.8848 58.6898 55.2487 59.3517 53.4555C60.0177 51.6622 60.0177 50.1234 59.8191 49.8028C59.6247 49.4822 59.0911 49.2899 58.2927 48.9031Z" fill="#E85E05"/>
</svg>
