<svg width="72" height="59" viewBox="0 0 72 59" fill="none" xmlns="http://www.w3.org/2000/svg">
<path d="M64.0732 15.2121C64.1166 15.8402 64.1166 16.4682 64.1166 17.1021C64.1166 36.4155 49.4137 58.6898 22.5288 58.6898V58.6783C14.5869 58.6898 6.81 56.415 0.124237 52.1256C1.27905 52.2646 2.43965 52.334 3.60315 52.3369C10.1847 52.3427 16.5782 50.1344 21.756 46.0679C15.5015 45.9493 10.0169 41.8712 8.10085 35.9177C10.2918 36.3403 12.5493 36.2535 14.6998 35.6659C7.88088 34.2883 2.97509 28.2971 2.97509 21.3393C2.97509 21.2756 2.97509 21.2148 2.97509 21.1541C5.00687 22.2857 7.28177 22.9138 9.60876 22.9832C3.18638 18.691 1.20669 10.1471 5.08502 3.46716C12.5059 12.5986 23.455 18.1498 35.2086 18.7373C34.0306 13.6608 35.6398 8.34112 39.4371 4.77248C45.3241 -0.761366 54.5828 -0.477727 60.1167 5.40633C63.3901 4.7609 66.5275 3.55978 69.3986 1.85795C68.3075 5.24135 66.0239 8.11536 62.9733 9.94165C65.8705 9.60012 68.7011 8.82446 71.3667 7.6407C69.4044 10.5813 66.9327 13.1427 64.0732 15.2121Z" fill="#E85E05"/>
</svg>
